# xmcd
#
# Track frame offsets: 
#        150
#        44431
#        70659
#        92169
#        145371
#        171915
#
# Disc length: 3341 seconds
#
# Revision: 4
# Processed by: cddbd v1.5.2PL0 Copyright (c) Steve Scherf et al.
# Submitted via: ExactAudioCopyFreeDBPlugin 1.0
#
DISCID=520d0b06
DTITLE=Miles Davis - Kind Of Blue (50 yr Collector's Edition)
DYEAR=2009
DGENRE=Jazz
TTITLE0=Miles Davis (tpt), Julian Adderley (al sax), John Coltrane (tn
TTITLE0=sax), Bill Evans (pf), Paul Chambers (db), Jimmy Cobb (perc) 
TTITLE0=/ On the Green Dolphin Street
TTITLE1=Miles Davis (tpt), Julian Adderley (al sax), John Coltrane (tn
TTITLE1=sax), Bill Evans (pf), Paul Chambers (db), Jimmy Cobb (perc) 
TTITLE1=/ Fran-Dance
TTITLE2=Miles Davis (tpt), Julian Adderley (al sax), John Coltrane (tn
TTITLE2=sax), Bill Evans (pf), Paul Chambers (db), Jimmy Cobb (perc) 
TTITLE2=/ Stella by Starlight
TTITLE3=Miles Davis (tpt), Julian Adderley (al sax), John Coltrane (tn
TTITLE3=sax), Bill Evans (pf), Paul Chambers (db), Jimmy Cobb (perc) 
TTITLE3=/ Love for Sale
TTITLE4=Miles Davis (tpt), Julian Adderley (al sax), John Coltrane (tn
TTITLE4=sax), Bill Evans (pf), Paul Chambers (db), Jimmy Cobb (perc) 
TTITLE4=/ Fran-Dance_alt tk
TTITLE5=Miles Davis (tpt), John Coltrane (tn sax), Wynton Kelly (pf), 
TTITLE5=Paul Chambers (db), Jimmy Cobb (perc) - So What
EXTD=YEAR: 1959
EXTT0=
EXTT1=
EXTT2=
EXTT3=
EXTT4=
EXTT5=
PLAYORDER=
